<svg xmlns="http://www.w3.org/2000/svg" width="30.918" height="29.927" viewBox="0 0 30.918 29.927">
  <path id="Path_7" data-name="Path 7" d="M234.658,420.929V407.9h11.5v10.287q0,8.355-1.847,12.034a16.567,16.567,0,0,1-7.983,7.606l-2.621-4.427a9.458,9.458,0,0,0,4.8-4.333,18.883,18.883,0,0,0,1.758-8.137Zm18.467,0V407.9h11.5v10.287q0,8.355-1.846,12.034a16.569,16.569,0,0,1-7.983,7.606l-2.621-4.427a9.46,9.46,0,0,0,4.8-4.333,18.9,18.9,0,0,0,1.758-8.137Z" transform="translate(-233.705 -407.898)" fill="#b7cfd6"/>
</svg>
