<svg xmlns="http://www.w3.org/2000/svg" viewBox="0 0 48 48"><defs><style>.cls-1{fill:none;}.cls-2{fill:#a25e8b;}</style></defs><title>Zasób 41960</title><g id="Warstwa_2" data-name="Warstwa 2"><g id="Warstwa_1-2" data-name="Warstwa 1"><rect id="Rectangle_51" data-name="Rectangle 51" class="cls-1" width="48" height="48"/><path class="cls-2" d="M48,25.35a3.08,3.08,0,0,0-2.87-2.66V16.43a3.19,3.19,0,0,0-1.6-2.9c-.68-.37-2.11-.76-4.24.54H29.4a4.88,4.88,0,0,1-2.69-.8,6.91,6.91,0,0,0-3.78-1.12H17.35c-2.4,0-4.89,1.6-4.89,4.28v4.39a1,1,0,0,0,2,0V16.43c0-1.56,1.73-2.28,2.89-2.28h5.58a4.86,4.86,0,0,1,2.68.79,7.15,7.15,0,0,0,3.8,1.13H39.57a1,1,0,0,0,.55-.17c1-.68,1.92-.9,2.45-.61a1.23,1.23,0,0,1,.56,1.14v6.26H3.38A3.09,3.09,0,0,0,0,25.35a.61.61,0,0,0,0,.14v9.7a1,1,0,0,0,1,1H3.46a2.41,2.41,0,0,0,2.36-2.14.66.66,0,0,0,0-.14V30.44H41.21v3.48a.66.66,0,0,0,0,.14,2.39,2.39,0,0,0,2.57,2.13H47a1,1,0,0,0,1-1v-9.7A.61.61,0,0,0,48,25.35Zm-2,8.84H43.62c-.18,0-.36-.14-.41-.36v-4.4a1,1,0,0,0-1-1H4.83a1,1,0,0,0-1,1v4.4a.41.41,0,0,1-.41.36H2V25.57a1.1,1.1,0,0,1,1.21-.89H44.78a1.11,1.11,0,0,1,1.22.89Z"/><path class="cls-2" d="M3.51,20.78a4.88,4.88,0,0,0,2.78.86,5.47,5.47,0,0,0,.9-.08,4.93,4.93,0,0,0,4-5.74,4.92,4.92,0,1,0-7.63,5Zm2.26-6.93a2.92,2.92,0,1,1-1.13,5.28,2.92,2.92,0,0,1,1.13-5.28Z"/></g></g></svg>