<svg xmlns="http://www.w3.org/2000/svg" width="50" height="48.928" viewBox="0 0 50 48.928"><g transform="translate(-1335 -5992)"><rect width="48" height="48" transform="translate(1336 5992)" fill="#fff"/><path d="M5553.886,3007.958h43.147a3.812,3.812,0,0,1,2.327.758,2.693,2.693,0,0,1,1.1,2.118v10.125a1,1,0,0,1-1,1h-2.7a2.875,2.875,0,0,1-1.755-.575,2.124,2.124,0,0,1-.862-1.675V3016.3h-37.368v3.408a2.125,2.125,0,0,1-.862,1.675,2.879,2.879,0,0,1-1.755.574h-2.7a1,1,0,0,1-1-1v-10.125a2.693,2.693,0,0,1,1.1-2.118A3.812,3.812,0,0,1,5553.886,3007.958Zm44.574,12v-9.125c0-.413-.61-.875-1.427-.875h-43.147c-.816,0-1.426.462-1.426.875v9.125h1.7a.7.7,0,0,0,.618-.254v-4.4a1,1,0,0,1,1-1h39.368a1,1,0,0,1,1,1v4.408a.7.7,0,0,0,.617.249Z" transform="translate(-4215.459 3018.97)" fill="#a25e8b"/><path d="M5559.866,2979.77h0a5.093,5.093,0,0,1,.924,10.1,5.093,5.093,0,1,1-.924-10.1Zm-.01,8.187a3.124,3.124,0,0,0,.569-.052,3.093,3.093,0,0,0-.559-6.134h0a3.144,3.144,0,0,0-.568.052,3.093,3.093,0,0,0,.559,6.134Z" transform="translate(-4218.193 3035.98)" fill="#a25e8b"/><path d="M5614.594,2992.2a1,1,0,0,1-1-1v-6.576a1.533,1.533,0,0,0-.661-1.4c-.571-.3-1.515-.042-2.59.7a1,1,0,0,1-.57.178h-10.748a6.968,6.968,0,0,1-4.01-1.248,5.052,5.052,0,0,0-2.865-.887h-5.883c-1.258,0-3.121.844-3.121,2.656v4.6a1,1,0,0,1-2,0v-4.6a4.352,4.352,0,0,1,1.8-3.551,5.729,5.729,0,0,1,3.317-1.106h5.883a7.071,7.071,0,0,1,4.009,1.247,5.045,5.045,0,0,0,2.866.888h10.444c2.191-1.411,3.683-1.024,4.39-.654a3.454,3.454,0,0,1,1.733,3.175v6.576A1,1,0,0,1,5614.594,2992.2Z" transform="translate(-4232.844 3035.784)" fill="#a25e8b"/></g></svg>