<svg xmlns="http://www.w3.org/2000/svg" width="48" height="50" viewBox="0 0 48 50"><g transform="translate(-616 -5999)"><rect width="48" height="48" transform="translate(616 6000)" fill="#fff"/><path d="M0,6.219a1,1,0,0,1-1-1V0A1,1,0,0,1,0-1,1,1,0,0,1,1,0V5.219A1,1,0,0,1,0,6.219Z" transform="translate(640 6042.781)" fill="#a25e8b"/><path d="M4348.475,4828.343a1,1,0,0,1-.482-1.876l20.38-11.193a1,1,0,1,1,.963,1.753l-20.38,11.193A1,1,0,0,1,4348.475,4828.343Z" transform="translate(-3708.514 1215.5)" fill="#a25e8b"/><path d="M4307.439,4795.641a1,1,0,0,1-.994-.907,55.588,55.588,0,0,1,.856-14.36,38.777,38.777,0,0,1,2.278-7.636c.293-.693.56-1.32.8-1.891,2.372-5.574,2.372-5.574,2.314-10.436-.011-.917-.024-2.058-.024-3.418v-6.3a1,1,0,0,1,2,0v6.3c0,1.349.013,2.436.024,3.4.062,5.232.039,5.337-2.474,11.242-.242.569-.508,1.194-.8,1.886a36.794,36.794,0,0,0-2.158,7.241,54.608,54.608,0,0,0-.828,13.79,1,1,0,0,1-.9,1.089C4307.5,4795.64,4307.47,4795.641,4307.439,4795.641Z" transform="translate(-3688.31 1249.302)" fill="#a25e8b"/><path d="M4383.452,4795.641c-.031,0-.062,0-.094,0a1,1,0,0,1-.9-1.089,54.618,54.618,0,0,0-.828-13.789,37.053,37.053,0,0,0-2.157-7.242c-.292-.691-.559-1.317-.8-1.886-2.513-5.9-2.536-6.009-2.474-11.242.011-.958.024-2.045.024-3.395v-6.3a1,1,0,0,1,2,0v6.3c0,1.361-.014,2.5-.024,3.418-.057,4.862-.057,4.862,2.314,10.436.243.571.51,1.2.8,1.892a39.055,39.055,0,0,1,2.277,7.635,55.6,55.6,0,0,1,.856,14.36A1,1,0,0,1,4383.452,4795.641Z" transform="translate(-3722.582 1249.302)" fill="#a25e8b"/><path d="M20.294,12.323a1,1,0,0,1-.486-.127L-.487.873A1,1,0,0,1-.873-.487,1,1,0,0,1,.487-.873L20.782,10.45a1,1,0,0,1-.488,1.873Z" transform="translate(619.706 6031.361)" fill="#a25e8b"/><path d="M4332.673,4802.385q-.6,0-1.2-.016a45.788,45.788,0,0,1-9.328-1.212,45.1,45.1,0,0,1-8.931-3.135l-.067-.031a1,1,0,1,1,.84-1.815l.072.033.009,0a43.5,43.5,0,0,0,35.135.923,1,1,0,0,1,.76,1.85,45.316,45.316,0,0,1-9.1,2.663A45.821,45.821,0,0,1,4332.673,4802.385Z" transform="translate(-3691.379 1225.348)" fill="#a25e8b"/><path d="M1.247,1H0A1,1,0,0,1-1,0,1,1,0,0,1,0-1H1.247a1,1,0,0,1,1,1A1,1,0,0,1,1.247,1Z" transform="translate(639.336 6018.391)" fill="#a25e8b"/></g></svg>