<svg xmlns="http://www.w3.org/2000/svg" viewBox="0 0 48 48"><defs><style>.cls-1{fill:none;}.cls-2{fill:#a25e8b;}</style></defs><title>Zasób 31960</title><g id="Warstwa_2" data-name="Warstwa 2"><g id="Warstwa_1-2" data-name="Warstwa 1"><rect id="Rectangle_51" data-name="Rectangle 51" class="cls-1" width="48" height="48"/><path class="cls-2" d="M44,29.59a37.65,37.65,0,0,0-2.18-7.33l-.77-1.81c-2.27-5.33-2.27-5.33-2.22-10,0-.91,0-2,0-3.28v-6a1,1,0,1,0-2,0v6c0,1.29,0,2.36,0,3.25-.06,5,0,5.13,2.38,10.79L40,23l0,0a41.81,41.81,0,0,1-31.67-.91l.39-.93c2.41-5.66,2.44-5.76,2.38-10.79,0-.89,0-2,0-3.25v-6a1,1,0,1,0-2,0v6c0,1.3,0,2.37,0,3.28,0,4.65,0,4.65-2.21,10l-.78,1.82A37.35,37.35,0,0,0,4,29.59a53.73,53.73,0,0,0-.82,13.75,1,1,0,0,0,1,.93H4.2a1,1,0,0,0,.93-1.06,52.09,52.09,0,0,1,.34-10.37l17.59,9.81v4.21a1,1,0,0,0,2,0v-4.2l17.52-9.5a51.94,51.94,0,0,1,.29,10.05,1,1,0,0,0,.93,1.06h.07a1,1,0,0,0,1-.93A53.73,53.73,0,0,0,44,29.59Zm-20,11.33L5.8,30.73c0-.26.07-.51.12-.76a36.16,36.16,0,0,1,1.69-6,43.73,43.73,0,0,0,17.71,3.75A43.71,43.71,0,0,0,40.73,25a34.4,34.4,0,0,1,1.35,5c.07.36.11.72.17,1.08Z"/><path class="cls-2" d="M23.52,19.4h1a1,1,0,0,0,0-2h-1a1,1,0,0,0,0,2Z"/></g></g></svg>