<svg xmlns="http://www.w3.org/2000/svg" width="208" height="137.5" viewBox="0 0 208 137.5">
  <g id="Group_159" data-name="Group 159" transform="translate(-383.5 -7448)">
    <path id="Path_17" data-name="Path 17" d="M300,176a100,100,0,0,1,200,0" transform="translate(87.5 7376)" fill="none" stroke="#b7cfd6" stroke-miterlimit="10" stroke-width="8"/>
    <g id="Group_53" data-name="Group 53" transform="translate(464 7520)">
      <g id="Group_52" data-name="Group 52">
        <path id="Path_24" data-name="Path 24" d="M-192.063,2159.868A15.239,15.239,0,0,1-207.3,2144.63" transform="translate(214.92 -2103.487)" fill="none" stroke="#f7f7f7" stroke-linecap="round" stroke-linejoin="round" stroke-width="3"/>
        <path id="Path_25" data-name="Path 25" d="M-183.349,2136.763V2117.63h-12.19v19.133a22.848,22.848,0,0,0-16.762,22.009,22.858,22.858,0,0,0,22.857,22.858,22.857,22.857,0,0,0,22.857-22.858A22.846,22.846,0,0,0-183.349,2136.763Z" transform="translate(212.301 -2117.63)" fill="none" stroke="#f7f7f7" stroke-linejoin="round" stroke-width="3"/>
        <line id="Line_22" data-name="Line 22" x2="22.211" transform="translate(11.759 0.311)" fill="none" stroke="#f7f7f7" stroke-linecap="round" stroke-linejoin="round" stroke-width="3"/>
        <path id="Path_26" data-name="Path 26" d="M-211.3,2140.768s7.809-8.381,21.333,1.524,21.333,0,21.333,0" transform="translate(212.825 -2107.244)" fill="none" stroke="#f7f7f7" stroke-linecap="round" stroke-linejoin="round" stroke-width="3"/>
      </g>
      <path id="Path_27" data-name="Path 27" d="M-197.3,2142.771s6.985-7.3,19.809-6.1" transform="translate(220.158 -2107.723)" fill="none" stroke="#f7f7f7" stroke-linejoin="round" stroke-width="3"/>
    </g>
  </g>
</svg>
