<svg xmlns="http://www.w3.org/2000/svg" width="48" height="48" viewBox="0 0 48 48"><g transform="translate(-952 -6001)"><rect width="48" height="48" transform="translate(952 6001)" fill="#fff"/><g transform="translate(955 6004)"><path d="M4488,4809.357h11a1,1,0,0,1,1,1c0,3.463,3.132,6.281,6.981,6.281s6.982-2.817,6.982-6.281a1,1,0,0,1,1-1h11a2.937,2.937,0,0,1,3.018,2.842v9.011a1,1,0,0,1-1,1h-42a1,1,0,0,1-1-1V4812.2A2.938,2.938,0,0,1,4488,4809.357Zm10.063,2H4488a.945.945,0,0,0-1.02.842v8.011h40V4812.2a.943.943,0,0,0-1.018-.842h-10.065a9.1,9.1,0,0,1-17.833,0Z" transform="translate(-4485.977 -4779.21)" fill="#a25e8b"/><path d="M4539.024,4797.134a5.527,5.527,0,0,1-5.521-5.521c0-1.252.793-3.062,2.426-5.534,1.144-1.731,2.27-3.129,2.317-3.187a1,1,0,0,1,1.556,0c.047.059,1.173,1.457,2.317,3.188,1.633,2.472,2.426,4.282,2.426,5.534A5.527,5.527,0,0,1,4539.024,4797.134Zm0-11.975c-.4.542-.922,1.259-1.435,2.036-1.883,2.854-2.086,4.041-2.086,4.419a3.521,3.521,0,0,0,7.042,0c0-.379-.2-1.569-2.095-4.432C4539.939,4786.408,4539.426,4785.7,4539.024,4785.159Z" transform="translate(-4518.024 -4763.184)" fill="#a25e8b"/><path d="M4568.329,4764.042a4.488,4.488,0,0,1-4.483-4.483c0-1.011.624-2.447,1.907-4.391.887-1.343,1.761-2.429,1.8-2.474a1,1,0,0,1,.778-.372h0a1,1,0,0,1,.778.372c.037.046.911,1.131,1.8,2.474,1.283,1.943,1.907,3.379,1.907,4.391A4.488,4.488,0,0,1,4568.329,4764.042Zm0-9.071c-.275.376-.6.829-.916,1.312-1.455,2.206-1.568,3.065-1.568,3.276a2.483,2.483,0,1,0,4.966,0c0-.211-.114-1.074-1.576-3.289C4568.919,4755.791,4568.6,4755.342,4568.329,4754.97Z" transform="translate(-4539.216 -4744.101)" fill="#a25e8b"/><path d="M4519.13,4768.465a3.8,3.8,0,0,1-3.8-3.8c0-.544.162-1.512,1.565-3.636.718-1.087,1.426-1.966,1.456-2a1,1,0,0,1,.778-.372h0a1,1,0,0,1,.778.372c.03.037.738.917,1.456,2,1.4,2.124,1.564,3.093,1.564,3.636A3.8,3.8,0,0,1,4519.13,4768.465Zm0-7.151c-.181.251-.378.534-.574.831-1.167,1.769-1.226,2.411-1.226,2.521a1.8,1.8,0,1,0,3.6,0c0-.111-.06-.756-1.234-2.534C4519.5,4761.839,4519.308,4761.561,4519.13,4761.314Z" transform="translate(-4505.332 -4748.294)" fill="#a25e8b"/><path d="M4519.13,4768.465a3.8,3.8,0,0,1-3.8-3.8c0-.544.162-1.512,1.565-3.636.718-1.087,1.426-1.966,1.456-2a1,1,0,0,1,.778-.372h0a1,1,0,0,1,.778.372c.03.037.738.917,1.456,2,1.4,2.124,1.564,3.093,1.564,3.636A3.8,3.8,0,0,1,4519.13,4768.465Zm0-7.151c-.181.251-.378.534-.574.831-1.167,1.769-1.226,2.411-1.226,2.521a1.8,1.8,0,1,0,3.6,0c0-.111-.06-.756-1.234-2.534C4519.5,4761.839,4519.308,4761.561,4519.13,4761.314Z" transform="translate(-4496.407 -4759.655)" fill="#a25e8b"/></g></g></svg>