<svg xmlns="http://www.w3.org/2000/svg" viewBox="0 0 48 48"><defs><style>.cls-1{fill:none;}.cls-2{fill:#a25e8b;}</style></defs><title>Zasób 11960</title><g id="Warstwa_2" data-name="Warstwa 2"><g id="Warstwa_1-2" data-name="Warstwa 1"><rect id="Rectangle_51" data-name="Rectangle 51" class="cls-1" width="48" height="48"/><path class="cls-2" d="M45.9,35.6c-.16-.41-1-2.47-2.72-2.63h-11a1,1,0,0,0-1,1c0,3.6-3.07,6.42-7,6.42-3.12,0-6.18-4.26-7.1-5.9a1,1,0,0,0-.87-.52H5.09a2.9,2.9,0,0,0-3,2.7V45a1,1,0,0,0,1,1H45a1,1,0,0,0,1-1V36A1.13,1.13,0,0,0,45.9,35.6ZM44,44H4V36.72a.92.92,0,0,1,1-.75H15.7c1,1.62,4.34,6.42,8.54,6.42A8.68,8.68,0,0,0,33.14,35h10A2.48,2.48,0,0,1,44,36.16Z"/><path class="cls-2" d="M24.24,22.33a1,1,0,0,0-.78.37c-.79,1-4.73,6-4.73,8.71a5.51,5.51,0,0,0,5.5,5.5h0a5.52,5.52,0,0,0,5.51-5.5h0c0-2.71-3.95-7.73-4.74-8.71A1,1,0,0,0,24.24,22.33Zm2.48,11.56a3.5,3.5,0,0,1-2.48,1h0a3.52,3.52,0,0,1-3.51-3.5c0-1.33,1.92-4.33,3.52-6.45,1.65,2.2,3.51,5.18,3.51,6.45A3.5,3.5,0,0,1,26.72,33.89Z"/><path class="cls-2" d="M30.58,22.57a5,5,0,0,0,1.89.39A4.34,4.34,0,0,0,35,22.2a4.45,4.45,0,0,0,2-3.75c0-2.16-3.08-6.08-3.69-6.85a1.05,1.05,0,0,0-1.56,0c-.62.77-3.7,4.69-3.7,6.91A4.36,4.36,0,0,0,30.58,22.57Zm1.89-8.7C33.66,15.5,35,17.59,35,18.46h0a2.48,2.48,0,0,1-1.11,2.08,2.59,2.59,0,0,1-2.48.19A2.42,2.42,0,0,1,30,18.46C30,17.58,31.26,15.51,32.47,13.87Z"/><path class="cls-2" d="M17.05,23.16a3.79,3.79,0,0,0,3.79-3.79c0-1.76-2.31-4.75-3-5.63a1,1,0,0,0-1.55,0c-.71.88-3,3.87-3,5.63A3.8,3.8,0,0,0,17.05,23.16Zm0-7.14a9.63,9.63,0,0,1,1.79,3.35,1.8,1.8,0,1,1-3.59,0A9.53,9.53,0,0,1,17.05,16Z"/><path class="cls-2" d="M26,11.82A3.79,3.79,0,0,0,29.75,8c0-1.76-2.31-4.75-3-5.63a1,1,0,0,0-1.55,0c-.71.88-3,3.87-3,5.63A3.8,3.8,0,0,0,26,11.82Zm0-7.14A9.63,9.63,0,0,1,27.75,8a1.8,1.8,0,1,1-3.59,0A9.53,9.53,0,0,1,26,4.68Z"/></g></g></svg>