<svg xmlns="http://www.w3.org/2000/svg" viewBox="0 0 48 48"><defs><style>.cls-1{fill:none;}.cls-2{fill:#a25e8b;}</style></defs><title>Zasób 21960</title><g id="Warstwa_2" data-name="Warstwa 2"><g id="Warstwa_1-2" data-name="Warstwa 1"><rect id="Rectangle_51" data-name="Rectangle 51" class="cls-1" width="48" height="48"/><path class="cls-2" d="M21.67,27.76a4.91,4.91,0,0,0-3.1-2.35,1,1,0,0,0-.48,1.94,2.94,2.94,0,0,1,1.85,1.4,4.19,4.19,0,0,1,.54,2l.19,10.49a1,1,0,0,0,1,1h0a1,1,0,0,0,1-1l-.19-10.47A6.19,6.19,0,0,0,21.67,27.76Z"/><path class="cls-2" d="M29.43,25.41a5,5,0,0,0-3.11,2.35,6.28,6.28,0,0,0-.8,3l-.18,10.48a1,1,0,0,0,1,1h0a1,1,0,0,0,1-1l.18-10.5a4.18,4.18,0,0,1,.54-2,2.94,2.94,0,0,1,1.85-1.4,1,1,0,1,0-.48-1.94Z"/><path class="cls-2" d="M46.52,14.05C44.72,9.41,41.77,6.6,38,5.92a9.47,9.47,0,0,0-6.38,1,7.39,7.39,0,0,0-3.73,4.8,8.1,8.1,0,0,0,.9,5.78,8.28,8.28,0,0,0,1.59,2,11.43,11.43,0,0,0-4.65,2.35,2.7,2.7,0,0,1-3.5,0,11.43,11.43,0,0,0-4.65-2.35,8,8,0,0,0,1.59-2,8,8,0,0,0,.89-5.81,7.36,7.36,0,0,0-3.7-4.78,9.53,9.53,0,0,0-6.39-1c-3.76.68-6.7,3.49-8.51,8.14a22.23,22.23,0,0,0-1.11,12,14.72,14.72,0,0,0,4.52,8.71A8.65,8.65,0,0,0,10.64,37a7.78,7.78,0,0,0,1-.05,7,7,0,0,0,3.56-1.44A5.05,5.05,0,0,0,17,32a3.4,3.4,0,0,0-.87-2.52,3.7,3.7,0,0,0-2.77-1,1,1,0,0,0,0,2,1.78,1.78,0,0,1,1.32.41,1.44,1.44,0,0,1,.33,1,3,3,0,0,1-1.08,2,4.86,4.86,0,0,1-2.52,1,6.62,6.62,0,0,1-5.16-1.62,12.7,12.7,0,0,1-3.9-7.56,20.33,20.33,0,0,1,1-11c1.56-4,3.92-6.34,7-6.9a7.6,7.6,0,0,1,5.07.82,5.38,5.38,0,0,1,2.71,3.47,6,6,0,0,1-.68,4.36,4.37,4.37,0,0,1-3.38,2.52l-.95,0A1,1,0,0,0,13,21a5.19,5.19,0,0,0,1.11,0A11.13,11.13,0,0,1,21,23.41a4.69,4.69,0,0,0,6.11,0,11,11,0,0,1,6.81-2.36A5.26,5.26,0,0,0,35,21a1,1,0,0,0,.68-1.59c-.38-.52-1.14-.41-1.77-.38a4.36,4.36,0,0,1-3.36-2.53,6,6,0,0,1-.68-4.33,5.38,5.38,0,0,1,2.73-3.5,7.54,7.54,0,0,1,5.06-.81c3.09.56,5.45,2.88,7,6.89a20.42,20.42,0,0,1,1,11,12.69,12.69,0,0,1-3.88,7.49,6.64,6.64,0,0,1-5.19,1.64,4.87,4.87,0,0,1-2.49-1,3.08,3.08,0,0,1-1.1-2,1.5,1.5,0,0,1,.33-1.05,1.78,1.78,0,0,1,1.32-.41,1,1,0,0,0,0-2,3.66,3.66,0,0,0-2.76,1A3.43,3.43,0,0,0,31,32.07a5.06,5.06,0,0,0,1.84,3.4,6.9,6.9,0,0,0,3.53,1.43,8.72,8.72,0,0,0,6.75-2.15,14.65,14.65,0,0,0,4.5-8.66A22.38,22.38,0,0,0,46.52,14.05Z"/></g></g></svg>