<svg xmlns="http://www.w3.org/2000/svg" width="50.003" height="48" viewBox="0 0 50.003 48"><g transform="translate(-278.998 -5989)"><rect width="48" height="48" transform="translate(280 5989)" fill="#fff"/><g transform="translate(280 5995)"><path d="M4099.822,4768.583a9.034,9.034,0,0,1-5.956-2.275,15.278,15.278,0,0,1-4.7-9.028,23.177,23.177,0,0,1,1.152-12.544c1.874-4.825,4.936-7.751,8.854-8.462a9.928,9.928,0,0,1,6.647,1.071,7.645,7.645,0,0,1,3.834,4.959,8.328,8.328,0,0,1-.925,6.012,7.884,7.884,0,0,1-2.3,2.629,5.812,5.812,0,0,1-4.113,1.008,1,1,0,0,1,.114-1.993.946.946,0,0,1,.117.007c1.834.213,3.329-.675,4.439-2.635a6.334,6.334,0,0,0,.72-4.568,5.622,5.622,0,0,0-2.872-3.677,7.914,7.914,0,0,0-5.306-.845c-3.243.589-5.715,3.018-7.347,7.219a21.176,21.176,0,0,0-1.049,11.462,13.311,13.311,0,0,0,4.057,7.884,6.987,6.987,0,0,0,5.433,1.729,5.182,5.182,0,0,0,2.653-1.061l0,0a3.261,3.261,0,0,0,1.148-2.1,1.588,1.588,0,0,0-.353-1.131,1.9,1.9,0,0,0-1.411-.442,1,1,0,0,1,0-2,3.78,3.78,0,0,1,2.856,1.06,3.528,3.528,0,0,1,.905,2.6,5.266,5.266,0,0,1-1.907,3.579h0a7.155,7.155,0,0,1-3.657,1.479A8.609,8.609,0,0,1,4099.822,4768.583Z" transform="translate(-4089.779 -4737.105)" fill="#a25e8b"/><path d="M4176.437,4768.583a8.611,8.611,0,0,1-1.039-.062,7.145,7.145,0,0,1-3.657-1.479,5.273,5.273,0,0,1-1.907-3.579,3.528,3.528,0,0,1,.905-2.6,3.783,3.783,0,0,1,2.857-1.06,1,1,0,0,1,0,2,1.9,1.9,0,0,0-1.412.442,1.588,1.588,0,0,0-.353,1.13,3.253,3.253,0,0,0,1.147,2.1l.006,0a5.176,5.176,0,0,0,2.651,1.061,6.992,6.992,0,0,0,5.434-1.729,13.313,13.313,0,0,0,4.059-7.884,21.187,21.187,0,0,0-1.05-11.462c-1.632-4.2-4.1-6.63-7.349-7.219a7.912,7.912,0,0,0-5.3.845,5.629,5.629,0,0,0-2.874,3.677,6.345,6.345,0,0,0,.721,4.569c1,1.77,2.317,2.665,3.915,2.665a4.561,4.561,0,0,0,.523-.031.941.941,0,0,1,.117-.007,1,1,0,0,1,.114,1.993,5.8,5.8,0,0,1-4.112-1.008,7.884,7.884,0,0,1-2.3-2.628,8.338,8.338,0,0,1-.927-6.012,7.655,7.655,0,0,1,3.835-4.959,9.914,9.914,0,0,1,6.646-1.072c3.919.711,6.981,3.638,8.856,8.462a23.186,23.186,0,0,1,1.153,12.544,15.28,15.28,0,0,1-4.7,9.028A9.033,9.033,0,0,1,4176.437,4768.583Z" transform="translate(-4138.481 -4737.105)" fill="#a25e8b"/><path d="M4141.8,4817.3a1,1,0,0,1-1-.982l-.2-10.941a4.415,4.415,0,0,0-.563-2.131,3.084,3.084,0,0,0-1.985-1.5,1,1,0,0,1,.529-1.929,5.079,5.079,0,0,1,3.179,2.411,6.418,6.418,0,0,1,.839,3.1.024.024,0,0,1,0,.006l.2,10.943a1,1,0,0,1-.982,1.018Z" transform="translate(-4120.235 -4780.302)" fill="#a25e8b"/><path d="M4160.736,4817.3h-.018a1,1,0,0,1-.982-1.018l.194-10.943s0,0,0-.007a6.423,6.423,0,0,1,.84-3.1,5.079,5.079,0,0,1,3.179-2.411,1,1,0,1,1,.53,1.929,3.086,3.086,0,0,0-1.986,1.5,4.428,4.428,0,0,0-.564,2.133l-.194,10.939A1,1,0,0,1,4160.736,4817.3Z" transform="translate(-4134.3 -4780.302)" fill="#a25e8b"/><path d="M4135.087,4778.039a4.839,4.839,0,0,1-3.159-1.175c-1.925-1.659-4.68-2.5-8.188-2.5a1,1,0,0,1,0-2c4,0,7.2,1,9.494,2.986a2.821,2.821,0,0,0,3.707,0,12.372,12.372,0,0,1,6.039-2.7,1.024,1.024,0,0,1,.175-.015,1,1,0,0,1,.173,1.985,10.417,10.417,0,0,0-5.082,2.246A4.839,4.839,0,0,1,4135.087,4778.039Z" transform="translate(-4111.088 -4759.511)" fill="#a25e8b"/></g><path d="M4160.925,4777.107a1,1,0,0,1-.654-1.757c2.3-1.981,5.492-2.986,9.494-2.986a1,1,0,0,1,0,2c-3.509,0-6.263.841-8.187,2.5A1,1,0,0,1,4160.925,4777.107Z" transform="translate(-3854.418 1235.488)" fill="#a25e8b"/></g></svg>